PathFileType	4	(X/Y/Z)	s07c0302.trc
DataRate	CameraRate	NumFrames	NumMarkers	Units	OrigDataRate	OrigDataStartFrame	OrigNumFrames
200	200	4	48	mm	200	0	2000
Frame#	Time	racr			lacr			c7			jug			rlel			rdr			llel			ldr			s2			lic			ric			lasi			rasi			rpsi			lpsi			rgt			lgt			rth1			rth2			rth3			rth4			rlfc			rmfc			rsh1			rsh2			rsh3			rsh4			rlmal			rcal			rtoe			rmt5			lth1			lth2			lth4			lth3			llfc			lmfc			lsh1			lsh2			lsh3			lsh4			llmal			lcal			ltoe			lmt5			SBIKE			LBIKE			RBIKE			
		X1	Y1	Z1	X2	Y2	Z2	X3	Y3	Z3	X4	Y4	Z4	X5	Y5	Z5	X6	Y6	Z6	X7	Y7	Z7	X8	Y8	Z8	X9	Y9	Z9	X10	Y10	Z10	X11	Y11	Z11	X12	Y12	Z12	X13	Y13	Z13	X14	Y14	Z14	X15	Y15	Z15	X16	Y16	Z16	X17	Y17	Z17	X18	Y18	Z18	X19	Y19	Z19	X20	Y20	Z20	X21	Y21	Z21	X22	Y22	Z22	X23	Y23	Z23	X24	Y24	Z24	X25	Y25	Z25	X26	Y26	Z26	X27	Y27	Z27	X28	Y28	Z28	X29	Y29	Z29	X30	Y30	Z30	X31	Y31	Z31	X32	Y32	Z32	X33	Y33	Z33	X34	Y34	Z34	X35	Y35	Z35	X36	Y36	Z36	X37	Y37	Z37	X38	Y38	Z38	X39	Y39	Z39	X40	Y40	Z40	X41	Y41	Z41	X42	Y42	Z42	X43	Y43	Z43	X44	Y44	Z44	X45	Y45	Z45	X46	Y46	Z46	X47	Y47	Z47	X48	Y48	Z48	
0	0.0000	502.030103	1317.466436	-92.629665	478.495207	1313.540670	-373.083210	481.070863	1342.385595	-240.028022	417.516898	1214.784308	-235.296370	467.927270	1008.933183	66.950685	709.123983	914.636889	-59.288392	457.424594	1019.659998	-537.334082	711.009440	912.350298	-431.957803	-126.386470	1225.068545	-244.522228	35.139280	1226.694957	-362.176245	51.265856	1213.973004	-91.693969	57.869719	1149.270416	-360.560506	46.134429	1161.532428	-108.321109	-89.282681	1255.243829	-192.360031	-72.396231	1263.440462	-298.539934	-35.897270	1127.906412	-43.990615	-45.502599	1105.257529	-421.900013	98.902915	1057.052723	-51.188580	182.610572	1034.362350	-64.980348	248.236323	979.368358	-64.458472	196.679526	1065.745442	-81.401288	361.875198	892.470791	-103.616722	351.959904	876.880902	-207.828878	317.660018	755.619565	-76.224748	309.075906	668.028968	-94.928112	263.329740	594.682090	-88.281012	323.434149	666.953897	-132.180073	211.921214	467.008026	-88.233259	146.112758	422.208553	-114.993839	436.438080	415.916266	-130.554197	361.512434	378.939402	-59.276698	12.237522	998.657852	-429.700156	83.647261	948.343747	-434.830767	112.200715	969.460670	-426.482978	120.610281	865.837377	-432.637622	219.582558	710.036592	-401.709228	209.706841	695.202659	-302.487586	124.347504	592.233581	-419.306648	85.215487	518.761630	-396.530210	12.197769	466.224167	-404.025124	88.080799	521.429155	-355.258036	-82.165039	369.468423	-398.896992	-161.708446	344.746882	-363.209877	117.707204	270.651203	-360.439725	33.921270	261.460846	-424.466633	-263.289847	966.595647	-237.979788	-83.283092	79.294278	-437.806305	-83.265799	78.654064	-40.143781	
1	0.0050	501.993449	1317.455160	-92.571749	478.478088	1313.577940	-373.016652	481.052278	1342.384988	-240.002688	417.474417	1214.812092	-235.251298	467.915529	1008.909022	66.964085	709.115020	914.660112	-59.291595	457.427367	1019.677955	-537.345293	711.022581	912.390268	-432.014884	-126.379590	1225.063312	-244.533175	35.158398	1226.755967	-362.191266	51.238090	1213.984788	-91.674690	57.848217	1149.296877	-360.575907	46.123565	1161.544040	-108.331981	-89.296553	1255.232085	-192.362643	-72.391212	1263.461783	-298.531680	-35.913972	1127.898583	-43.992293	-45.502382	1105.278630	-421.914232	98.864874	1057.065611	-51.181332	182.575036	1034.443445	-64.976288	248.225846	979.430568	-64.469501	196.654578	1065.788496	-81.392511	361.905983	892.518960	-103.659240	351.962328	876.932376	-207.814159	317.685529	755.675614	-76.229142	309.116052	668.120448	-94.935515	263.366679	594.765627	-88.283063	323.436422	667.016147	-132.174439	211.938671	467.091195	-88.238609	146.141777	422.330931	-114.999889	436.439120	415.930984	-130.559593	361.486845	378.989805	-59.277958	12.233959	998.671363	-429.716649	83.647518	948.356485	-434.807575	112.190829	969.459622	-426.471568	120.612488	865.850665	-432.639438	219.547547	710.040845	-401.692377	209.700227	695.204322	-302.479860	124.305625	592.229992	-419.330384	85.203689	518.736993	-396.509350	12.188157	466.186545	-404.036956	88.078335	521.431742	-355.236806	-82.189374	369.436335	-398.876549	-161.711289	344.705471	-363.203473	117.708994	270.653153	-360.458852	33.927386	261.443926	-424.461688	-263.301528	966.593087	-237.991912	-83.293280	79.313595	-437.802536	-83.348136	78.809039	-40.114174	
2	0.0100	501.967312	1317.443649	-92.538023	478.464787	1313.568549	-372.978333	481.028430	1342.374561	-239.932864	417.453709	1214.826767	-235.236088	467.899920	1008.901118	66.992240	709.093070	914.676482	-59.290300	457.442795	1019.702498	-537.332058	711.016303	912.389969	-432.014317	-126.405323	1225.064538	-244.545159	35.194167	1226.753374	-362.231893	51.180746	1214.015840	-91.645025	57.857927	1149.323880	-360.560798	46.081500	1161.604415	-108.312056	-89.331454	1255.233402	-192.352755	-72.408593	1263.450859	-298.537842	-35.937144	1127.904688	-43.992110	-45.495826	1105.283671	-421.910547	98.851110	1057.080359	-51.183700	182.538894	1034.474514	-64.969745	248.215554	979.485579	-64.455132	196.608747	1065.845496	-81.380723	361.919730	892.592335	-103.639402	351.984279	876.992287	-207.785477	317.701934	755.732607	-76.217976	309.118368	668.185811	-94.911109	263.384310	594.821272	-88.278800	323.468825	667.094305	-132.152308	211.977889	467.175460	-88.228634	146.153007	422.416610	-115.010766	436.450130	415.928077	-130.551028	361.492794	379.012614	-59.289159	12.230718	998.679695	-429.707152	83.647597	948.376099	-434.805357	112.193462	969.478827	-426.448694	120.602184	865.865080	-432.632139	219.513766	710.023875	-401.673845	209.647641	695.199931	-302.448251	124.279700	592.206378	-419.298459	85.167802	518.717217	-396.515601	12.168152	466.165411	-404.035465	88.058659	521.410187	-355.237850	-82.206151	369.393379	-398.881462	-161.719373	344.661502	-363.196497	117.710229	270.640140	-360.453862	33.926440	261.424822	-424.464874	-263.291403	966.585873	-237.986885	-83.299286	79.314031	-437.815655	-83.332125	78.790064	-40.129144	
3	0.0150	501.870462	1317.820643	-92.221109	474.966362	1313.367101	-376.283962	481.026025	1342.352372	-239.880000	417.414844	1214.803608	-235.182521	467.683976	1009.344123	67.174856	709.083456	914.676693	-59.281261	457.688266	1019.613031	-537.093349	711.020205	912.386102	-432.029027	-126.418123	1225.061278	-244.553915	35.131897	1226.768463	-362.211726	51.197935	1213.875330	-91.633162	57.858976	1149.346544	-360.565066	46.065070	1161.610545	-108.309335	-89.338547	1255.228725	-192.369210	-72.342180	1263.394337	-298.438084	-36.127252	1127.790226	-43.962979	-45.515441	1105.299114	-421.916714	98.828342	1057.176485	-51.177828	182.994817	1035.807538	-64.905611	248.224396	979.554774	-64.438288	196.642200	1065.909787	-81.384801	361.933755	892.709779	-103.581845	356.071340	875.728460	-202.810213	317.734234	755.798326	-76.194593	308.956480	668.127623	-94.869503	263.429939	594.891937	-88.273989	323.592352	667.092170	-132.202177	211.184666	468.103560	-87.603301	146.160676	422.518199	-114.998618	436.458261	415.924313	-130.552075	361.503304	379.052622	-59.279853	12.357601	998.863642	-429.864902	83.361065	944.771434	-427.511504	112.181942	969.525054	-426.477520	120.600802	865.860783	-432.615927	219.518761	709.887492	-401.701992	209.612795	695.174968	-302.423152	124.231266	592.195316	-419.300004	85.262442	518.362716	-396.616576	12.140206	466.131698	-404.025140	88.385682	521.173741	-355.031014	-82.244267	369.634721	-399.330951	-161.719967	344.582058	-363.212774	117.728420	270.620114	-360.454493	33.947088	261.387159	-424.474623	-263.390002	966.588463	-238.346944	-83.304753	79.310557	-437.801854	-83.347866	78.828231	-40.116900	
